# xmcd CD database file
#
# Track frame offsets:
#	150
#	50971
#	88139
#	108540
#	145278
#	176597
#	202300
#	237948
#	314896
#
# Disc length: 4837 seconds
#
# Revision: 0
# Processed by: cddbd v1.5.1PL2 Copyright (c) Steve Scherf et al.
# Submitted via: CDex 1.51
#
DISCID=9312e309
DTITLE=Nils Petter Molvaer - NP3 Live
DYEAR=2001
DGENRE=Jazz
TTITLE0=Vilderness
TTITLE1=Platonic Years
TTITLE2=Kakonita
TTITLE3=Solid Ether
TTITLE4=Marrow
TTITLE5=Nebulizer
TTITLE6=Song of Sand
TTITLE7=Tlon
TTITLE8=Trip
EXTD=YEAR: 2001
EXTT0=
EXTT1=
EXTT2=
EXTT3=
EXTT4=
EXTT5=
EXTT6=
EXTT7=
EXTT8=
PLAYORDER=
